<?xml version="1.0" encoding="utf-8"?>
<!-- Generator: Adobe Illustrator 16.0.0, SVG Export Plug-In . SVG Version: 6.00 Build 0)  -->
<!DOCTYPE svg PUBLIC "-//W3C//DTD SVG 1.1//EN" "http://www.w3.org/Graphics/SVG/1.1/DTD/svg11.dtd">
<svg version="1.1" id="Calque_1" xmlns="http://www.w3.org/2000/svg" xmlns:xlink="http://www.w3.org/1999/xlink" x="0px" y="0px"
	 width="512px" height="512px" viewBox="0 0 512 512" style="enable-background:new 0 0 512 512;" xml:space="preserve">
<path style="fill-rule:evenodd;clip-rule:evenodd;fill:#DE2131;" d="M256.321,47.361c41.355,71.604,80.822,139.937,121.569,210.484
	c-81.676,0-160.542,0-243.003,0C175.173,188.017,214.74,119.437,256.321,47.361z"/>
<path style="fill-rule:evenodd;clip-rule:evenodd;fill:#2690CF;" d="M390.957,257.846
	c-41.354-71.603-80.824-139.936-121.573-210.484c81.679,0,160.545,0,243.006,0C472.104,117.191,432.537,185.771,390.957,257.846z"/>
<path style="fill-rule:evenodd;clip-rule:evenodd;fill:#2690CF;" d="M121.962,257.846C80.608,186.243,41.139,117.91,0.389,47.361
	c81.68,0,160.546,0,243.002,0C203.111,117.191,163.54,185.771,121.962,257.846z"/>
<path style="fill-rule:evenodd;clip-rule:evenodd;fill:#2690CF;" d="M256.458,482.626c-41.35-71.604-80.819-139.937-121.57-210.485
	c81.681,0,160.542,0,243.003,0C337.605,341.971,298.039,410.551,256.458,482.626z"/>
</svg>
