<?xml version="1.0" encoding="utf-8"?>
<!-- Generator: Adobe Illustrator 16.0.0, SVG Export Plug-In . SVG Version: 6.00 Build 0)  -->
<!DOCTYPE svg PUBLIC "-//W3C//DTD SVG 1.1//EN" "http://www.w3.org/Graphics/SVG/1.1/DTD/svg11.dtd">
<svg version="1.1" id="Layer_1" xmlns="http://www.w3.org/2000/svg" xmlns:xlink="http://www.w3.org/1999/xlink" x="0px" y="0px"
	 width="512px" height="512px" viewBox="0 0 512 512" style="enable-background:new 0 0 512 512;" xml:space="preserve">
<g>
	<path d="M256,0C168.137,0,96.934,71.6,96.934,160C96.934,312.801,256,512,256,512s159.063-199.199,159.063-352
		C415.067,71.6,343.865,0,256,0z M256,237.6c-41.603,0-75.197-33.867-75.197-75.603c0-41.73,33.734-75.73,75.197-75.73
		c41.601,0,75.196,33.86,75.196,75.73C331.198,203.733,297.601,237.6,256,237.6z"/>
</g>
<rect x="172.667" y="128.667" style="fill:none;" width="173.333" height="78.264"/>
<circle style="fill:#F9F9F9;" cx="256" cy="165" r="118.5"/>
<g style="enable-background:new    ;">
	<path d="M152.558,186.79l32.308-2.33c0.7,6.041,2.124,10.644,4.273,13.807c3.498,5.121,8.495,7.68,14.992,7.68
		c4.847,0,8.583-1.308,11.207-3.926c2.624-2.617,3.936-5.652,3.936-9.104c0-3.279-1.25-6.213-3.749-8.802
		c-2.499-2.589-8.296-5.033-17.391-7.335c-14.893-3.853-25.513-8.974-31.859-15.36c-6.397-6.385-9.595-14.525-9.595-24.42
		c0-6.5,1.636-12.642,4.91-18.423c3.272-5.782,8.195-10.326,14.768-13.634c6.571-3.308,15.579-4.962,27.023-4.962
		c14.042,0,24.749,3.007,32.121,9.018c7.371,6.012,11.756,15.576,13.156,28.692l-32.009,2.157c-0.85-5.695-2.636-9.837-5.359-12.426
		c-2.725-2.589-6.484-3.883-11.282-3.883c-3.949,0-6.922,0.964-8.92,2.891c-2,1.928-2.999,4.271-2.999,7.033
		c0,2.014,0.825,3.826,2.474,5.436c1.599,1.669,5.397,3.223,11.394,4.66c14.842,3.683,25.474,7.408,31.896,11.175
		c6.421,3.769,11.094,8.443,14.018,14.022c2.923,5.581,4.385,11.822,4.385,18.725c0,8.111-1.949,15.59-5.847,22.436
		c-3.898,6.847-9.346,12.038-16.341,15.576c-6.998,3.538-15.817,5.307-26.461,5.307c-18.691,0-31.634-4.142-38.83-12.426
		C157.581,210.089,153.507,199.561,152.558,186.79z"/>
	<path d="M316.873,204.997h-55.621V176.09l55.621-76.109h26.611v77.749h13.793v27.268h-13.793v23.644h-26.611V204.997z
		 M316.873,177.729v-39.811l-29.389,39.811H316.873z"/>
</g>
</svg>
