<?xml version="1.0" encoding="utf-8"?>
<!-- Generator: Adobe Illustrator 16.0.0, SVG Export Plug-In . SVG Version: 6.00 Build 0)  -->
<!DOCTYPE svg PUBLIC "-//W3C//DTD SVG 1.1//EN" "http://www.w3.org/Graphics/SVG/1.1/DTD/svg11.dtd">
<svg version="1.1" id="Layer_1" xmlns="http://www.w3.org/2000/svg" xmlns:xlink="http://www.w3.org/1999/xlink" x="0px" y="0px"
	 width="512px" height="512px" viewBox="0 0 512 512" style="enable-background:new 0 0 512 512;" xml:space="preserve">
<g>
	<path style="fill:#269EA4;" d="M256,0C168.137,0,96.934,71.6,96.934,160C96.934,312.801,256,512,256,512
		s159.062-199.199,159.062-352C415.067,71.6,343.865,0,256,0z M256,237.6c-41.604,0-75.197-33.867-75.197-75.604
		c0-41.729,33.734-75.729,75.197-75.729c41.601,0,75.195,33.859,75.195,75.729C331.198,203.733,297.601,237.6,256,237.6z"/>
</g>
<rect x="172.667" y="128.667" style="fill:none;" width="173.333" height="78.265"/>
<circle style="fill:#F9F9F9;" cx="256" cy="165" r="118.5"/>
<g style="enable-background:new    ;">
	<path style="fill:#269EA4;" d="M150.558,186.79l32.309-2.33c0.699,6.041,2.123,10.645,4.272,13.808
		c3.498,5.121,8.495,7.68,14.992,7.68c4.847,0,8.583-1.308,11.207-3.926c2.624-2.617,3.936-5.652,3.936-9.104
		c0-3.278-1.25-6.213-3.749-8.802s-8.296-5.033-17.391-7.335c-14.893-3.853-25.513-8.974-31.859-15.36
		c-6.396-6.385-9.595-14.524-9.595-24.42c0-6.5,1.636-12.642,4.91-18.423c3.271-5.782,8.195-10.326,14.768-13.634
		c6.571-3.308,15.579-4.962,27.023-4.962c14.042,0,24.749,3.007,32.121,9.018c7.371,6.013,11.756,15.576,13.156,28.692l-32.01,2.157
		c-0.85-5.695-2.636-9.837-5.358-12.427c-2.726-2.589-6.484-3.883-11.282-3.883c-3.949,0-6.922,0.964-8.92,2.892
		c-2,1.928-2.999,4.271-2.999,7.032c0,2.015,0.825,3.826,2.474,5.437c1.6,1.669,5.397,3.223,11.395,4.66
		c14.842,3.683,25.474,7.407,31.896,11.175c6.421,3.769,11.094,8.443,14.019,14.021c2.923,5.581,4.385,11.822,4.385,18.726
		c0,8.11-1.949,15.59-5.847,22.436c-3.898,6.848-9.347,12.038-16.342,15.576c-6.998,3.538-15.816,5.307-26.461,5.307
		c-18.69,0-31.634-4.142-38.83-12.426C155.581,210.089,151.507,199.561,150.558,186.79z"/>
	<path style="fill:#269EA4;" d="M351.754,228.641h-91.604c1.051-10.412,4.235-20.206,9.559-29.383
		c5.321-9.175,15.304-20.005,29.946-32.488c8.944-7.65,14.666-13.461,17.166-17.432c2.498-3.969,3.748-7.736,3.748-11.304
		c0-3.854-1.237-7.146-3.711-9.88c-2.474-2.731-5.584-4.099-9.332-4.099c-3.897,0-7.084,1.409-9.559,4.228
		c-2.473,2.819-4.135,7.796-4.984,14.928l-30.584-2.847c1.199-9.894,3.398-17.617,6.598-23.169
		c3.196-5.551,7.708-9.808,13.529-12.771c5.821-2.962,13.879-4.443,24.175-4.443c10.744,0,19.104,1.411,25.075,4.229
		c5.971,2.819,10.669,7.148,14.093,12.987c3.422,5.839,5.136,12.383,5.136,19.631c0,7.709-1.962,15.073-5.886,22.09
		c-3.924,7.021-11.057,14.729-21.4,23.126c-6.146,4.891-10.258,8.313-12.331,10.27c-2.074,1.957-4.511,4.517-7.31,7.68h47.676
		V228.641z"/>
</g>
</svg>
