<?xml version="1.0" encoding="utf-8"?>
<!-- Generator: Adobe Illustrator 16.0.0, SVG Export Plug-In . SVG Version: 6.00 Build 0)  -->
<!DOCTYPE svg PUBLIC "-//W3C//DTD SVG 1.1//EN" "http://www.w3.org/Graphics/SVG/1.1/DTD/svg11.dtd">
<svg version="1.1" id="Layer_1" xmlns="http://www.w3.org/2000/svg" xmlns:xlink="http://www.w3.org/1999/xlink" x="0px" y="0px"
	 width="512px" height="512px" viewBox="0 0 512 512" style="enable-background:new 0 0 512 512;" xml:space="preserve">
<g>
	<path style="fill:#AA3989;" d="M256,0C168.137,0,96.934,71.6,96.934,160C96.934,312.801,256,512,256,512
		s159.064-199.199,159.064-352C415.067,71.6,343.865,0,256,0z M256,237.6c-41.602,0-75.197-33.867-75.197-75.602
		c0-41.731,33.734-75.731,75.197-75.731c41.601,0,75.197,33.861,75.197,75.731C331.198,203.733,297.601,237.6,256,237.6z"/>
</g>
<rect x="172.667" y="128.667" style="fill:none;" width="173.333" height="78.263"/>
<circle style="fill:#F9F9F9;" cx="256" cy="165" r="118.5"/>
<g style="enable-background:new    ;">
	<path style="fill:#AA3989;" d="M162.49,187.587l31.949-2.351c0.691,6.093,2.101,10.736,4.227,13.928
		c3.457,5.166,8.399,7.746,14.825,7.746c4.792,0,8.487-1.32,11.083-3.96c2.594-2.64,3.891-5.702,3.891-9.184
		c0-3.308-1.236-6.267-3.706-8.877c-2.472-2.612-8.204-5.076-17.198-7.398c-14.728-3.888-25.229-9.054-31.505-15.494
		c-6.327-6.44-9.489-14.651-9.489-24.633c0-6.557,1.619-12.751,4.857-18.583c3.235-5.832,8.104-10.416,14.603-13.754
		c6.498-3.335,15.407-5.005,26.725-5.005c13.886,0,24.474,3.033,31.763,9.097c7.29,6.064,11.626,15.711,13.009,28.942l-31.65,2.176
		c-0.843-5.746-2.607-9.922-5.302-12.534c-2.693-2.612-6.41-3.919-11.155-3.919c-3.905,0-6.846,0.974-8.822,2.917
		s-2.965,4.31-2.965,7.095c0,2.031,0.814,3.858,2.447,5.483c1.579,1.684,5.336,3.25,11.267,4.701
		c14.677,3.714,25.191,7.471,31.542,11.271c6.349,3.802,10.971,8.518,13.861,14.146c2.891,5.629,4.338,11.925,4.338,18.888
		c0,8.183-1.931,15.729-5.783,22.631c-3.855,6.907-9.242,12.144-16.16,15.711c-6.92,3.569-15.642,5.354-26.168,5.354
		c-18.484,0-31.282-4.178-38.397-12.535C167.457,211.088,163.428,200.469,162.49,187.587z"/>
	<path style="fill:#AA3989;" d="M341.511,100.021v129.781h-30.542v-85.041c-4.943,4.41-9.725,7.979-14.344,10.707
		c-4.62,2.728-10.416,5.34-17.383,7.833v-29.073c10.277-3.887,18.259-8.56,23.939-14.014c5.686-5.452,10.134-12.186,13.348-20.193
		H341.511z"/>
</g>
</svg>
