<?xml version="1.0" encoding="utf-8"?>
<!-- Generator: Adobe Illustrator 16.0.0, SVG Export Plug-In . SVG Version: 6.00 Build 0)  -->
<!DOCTYPE svg PUBLIC "-//W3C//DTD SVG 1.1//EN" "http://www.w3.org/Graphics/SVG/1.1/DTD/svg11.dtd">
<svg version="1.1" id="Layer_1" xmlns="http://www.w3.org/2000/svg" xmlns:xlink="http://www.w3.org/1999/xlink" x="0px" y="0px"
	 width="512px" height="512px" viewBox="0 0 512 512" style="enable-background:new 0 0 512 512;" xml:space="preserve">
<g>
	<path style="fill:#A21515;" d="M256,0C168.137,0,96.934,71.6,96.934,160C96.934,312.801,256,512,256,512
		s159.063-199.199,159.063-352C415.067,71.6,343.865,0,256,0z M256,237.6c-41.603,0-75.197-33.867-75.197-75.603
		c0-41.73,33.734-75.73,75.197-75.73c41.601,0,75.196,33.86,75.196,75.73C331.198,203.733,297.601,237.6,256,237.6z"/>
</g>
<rect x="172.667" y="128.667" style="fill:none;" width="173.333" height="78.264"/>
<circle style="fill:#F9F9F9;" cx="256" cy="165" r="118.5"/>
<g style="enable-background:new    ;">
	<path style="fill:#A21515;" d="M154.558,186.79l32.308-2.33c0.7,6.041,2.124,10.644,4.273,13.807
		c3.498,5.121,8.495,7.68,14.992,7.68c4.847,0,8.583-1.308,11.207-3.926c2.624-2.617,3.936-5.652,3.936-9.104
		c0-3.279-1.25-6.213-3.749-8.802c-2.499-2.589-8.296-5.033-17.391-7.335c-14.893-3.853-25.513-8.974-31.859-15.36
		c-6.397-6.385-9.595-14.525-9.595-24.42c0-6.5,1.636-12.642,4.91-18.423c3.272-5.782,8.195-10.326,14.768-13.634
		c6.571-3.308,15.579-4.962,27.023-4.962c14.042,0,24.749,3.007,32.121,9.018c7.371,6.012,11.756,15.576,13.156,28.692
		l-32.009,2.157c-0.85-5.695-2.636-9.837-5.359-12.426c-2.725-2.589-6.484-3.883-11.282-3.883c-3.949,0-6.922,0.964-8.92,2.891
		c-2,1.928-2.999,4.271-2.999,7.033c0,2.014,0.825,3.826,2.474,5.436c1.599,1.669,5.397,3.223,11.394,4.66
		c14.842,3.683,25.474,7.408,31.896,11.175c6.421,3.769,11.094,8.443,14.018,14.022c2.923,5.581,4.385,11.822,4.385,18.725
		c0,8.111-1.949,15.59-5.847,22.436c-3.898,6.847-9.346,12.038-16.341,15.576c-6.998,3.538-15.817,5.307-26.461,5.307
		c-18.691,0-31.634-4.142-38.83-12.426C159.581,210.089,155.507,199.561,154.558,186.79z"/>
	<path style="fill:#A21515;" d="M296.01,138.726l-28.859-5.954c2.398-10.584,7.008-18.696,13.83-24.334
		c6.821-5.637,16.479-8.457,28.973-8.457c14.342,0,24.711,3.078,31.108,9.233c6.396,6.156,9.596,13.893,9.596,23.212
		c0,5.466-1.301,10.413-3.898,14.842c-2.599,4.43-6.521,8.313-11.769,11.649c4.247,1.208,7.496,2.619,9.745,4.229
		c3.646,2.589,6.483,5.997,8.508,10.226c2.023,4.228,3.036,9.276,3.036,15.144c0,7.364-1.676,14.425-5.022,21.185
		c-3.349,6.76-8.171,11.966-14.468,15.619c-6.297,3.653-14.568,5.479-24.812,5.479c-9.996,0-17.878-1.352-23.65-4.056
		c-5.771-2.703-10.52-6.658-14.242-11.865c-3.724-5.206-6.585-11.749-8.583-19.631l30.509-4.66
		c1.199,7.076,3.061,11.981,5.585,14.713c2.522,2.733,5.734,4.099,9.633,4.099c4.097,0,7.508-1.726,10.231-5.177
		s4.086-8.054,4.086-13.807c0-5.868-1.312-10.412-3.936-13.634c-2.624-3.221-6.185-4.832-10.682-4.832
		c-2.399,0-5.697,0.69-9.896,2.071l1.574-25.111c1.698,0.289,3.023,0.432,3.973,0.432c3.998,0,7.334-1.467,10.008-4.401
		c2.673-2.934,4.011-6.414,4.011-10.441c0-3.854-1.001-6.932-2.999-9.233c-1.999-2.3-4.748-3.452-8.245-3.452
		c-3.599,0-6.522,1.251-8.771,3.753C298.334,128.069,296.809,132.456,296.01,138.726z"/>
</g>
</svg>
